<svg width="765" height="188" viewBox="0 0 765 188" fill="none" xmlns="http://www.w3.org/2000/svg">
<path d="M0 94C0 42.0852 42.0852 0 94 0V0C145.915 0 188 42.0852 188 94V94C188 145.915 145.915 188 94 188V188C42.0852 188 0 145.915 0 94V94Z" fill="url(#paint0_linear_1_76)"/>
<path fill-rule="evenodd" clip-rule="evenodd" d="M3.40785 94C3.40785 144.033 43.9673 184.592 94 184.592C144.033 184.592 184.592 144.033 184.592 94C184.592 43.9673 144.033 3.40785 94 3.40785C43.9673 3.40785 3.40785 43.9673 3.40785 94ZM94 0C42.0852 0 0 42.0852 0 94C0 145.915 42.0852 188 94 188C145.915 188 188 145.915 188 94C188 42.0852 145.915 0 94 0Z" fill="url(#paint1_linear_1_76)" fill-opacity="0.47" style="mix-blend-mode:overlay"/>
<path fill-rule="evenodd" clip-rule="evenodd" d="M96.6863 125.314V159.947C107.5 159.493 118.052 156.484 127.479 151.168C136.906 145.853 144.941 138.38 150.926 129.363C156.912 120.346 160.677 110.04 161.914 99.2878C163.151 88.5359 161.826 77.6439 158.045 67.5028C157.822 66.9006 157.393 66.3963 156.835 66.0783C156.277 65.7602 155.625 65.6487 154.993 65.7632C154.361 65.8777 153.79 66.211 153.379 66.7047C152.968 67.1984 152.744 67.8209 152.746 68.4632C152.749 68.7907 152.808 69.1154 152.919 69.4236C155.583 76.5096 156.945 84.0188 156.939 91.5892C156.939 123.555 133.181 149.956 102.257 153.989V124.601C104.084 124.251 105.882 123.762 107.635 123.14V147.831C132.989 141.671 151.832 118.828 151.832 91.595C151.844 81.2533 149.083 71.0974 143.836 62.186C138.588 53.2746 131.046 45.9339 121.996 40.929C121.672 40.7509 121.315 40.6405 120.947 40.6046C120.578 40.5687 120.207 40.608 119.854 40.7201C119.502 40.8322 119.175 41.0147 118.896 41.2567C118.616 41.4986 118.388 41.7949 118.226 42.1275C118.044 42.5037 117.95 42.916 117.949 43.3338C117.949 43.8211 118.079 44.2996 118.325 44.7199C118.572 45.1403 118.926 45.4873 119.351 45.7251C127.551 50.2543 134.386 56.899 139.145 64.9671C143.903 73.0352 146.412 82.2318 146.409 91.5988C146.409 113.764 132.605 132.715 113.205 140.369V118.472C114.754 117.993 116.13 117.074 117.166 115.826C118.201 114.578 118.851 113.056 119.036 111.445C119.222 109.834 118.934 108.204 118.209 106.754C117.484 105.303 116.353 104.095 114.953 103.277C116.194 91.3428 120.076 88.9343 122.766 87.2649C124.334 86.2918 125.498 85.5698 125.498 83.3587V79.836C125.498 70.8084 104.667 41.4207 94.8923 40.7119C94.5927 40.6812 94.3315 40.6812 94.0318 40.6812C93.7322 40.6812 93.4306 40.6966 93.131 40.7119C83.3562 41.4207 62.4967 70.8084 62.4967 79.836V83.351C62.4967 85.5621 63.6602 86.2841 65.2284 87.2572C67.9188 88.9266 71.8003 91.3351 73.0417 103.269C71.7705 104.003 70.7172 105.061 69.9898 106.336C69.2624 107.611 68.8872 109.056 68.9024 110.524C68.9024 114.266 71.5243 117.422 74.7896 118.478V140.375C55.3898 132.721 41.5949 113.763 41.5872 91.6027C41.5872 71.8572 52.5356 54.6605 68.67 45.7251C69.1992 45.4297 69.6155 44.9673 69.8539 44.4102C70.0924 43.853 70.1394 43.2326 69.9877 42.6458C69.8361 42.0591 69.4942 41.5392 69.0156 41.1674C68.5371 40.7956 67.9488 40.5929 67.3428 40.5909C66.8869 40.59 66.4384 40.7064 66.0405 40.929C56.9846 45.9303 49.436 53.2692 44.1816 62.1806C38.9273 71.0921 36.1595 81.2498 36.1668 91.595C36.1668 118.828 55.0057 141.671 80.3598 147.831V123.145C82.113 123.768 83.9109 124.257 85.738 124.607V153.995C54.8136 149.954 31.0595 123.56 31.0537 91.595C31.0482 84.0234 32.4148 76.5135 35.0873 69.4293C35.2123 69.0938 35.27 68.737 35.2571 68.3793C35.2442 68.0215 35.1609 67.6698 35.0121 67.3442C34.8633 67.0186 34.6517 66.7255 34.3896 66.4816C34.1275 66.2378 33.8199 66.0479 33.4845 65.923C33.149 65.798 32.7922 65.7403 32.4344 65.7532C32.0766 65.7661 31.7249 65.8494 31.3993 65.9982C31.0737 66.147 30.7806 66.3586 30.5368 66.6207C30.2929 66.8828 30.1031 67.1904 29.9781 67.5258C26.1856 77.663 24.8499 88.5548 26.0804 99.308C27.3109 110.061 31.0727 120.37 37.0572 129.388C43.0417 138.406 51.0786 145.878 60.5088 151.19C69.939 156.502 80.4939 159.503 91.3082 159.947V125.314C92.2686 125.374 93.9973 125.404 93.9973 125.404C93.9973 125.404 95.726 125.374 96.6863 125.314ZM105.015 111.062C105.139 112.354 105.706 113.562 106.621 114.483C107.141 115.007 107.76 115.424 108.442 115.708C109.124 115.992 109.856 116.139 110.595 116.139C111.892 116.14 113.15 115.691 114.154 114.869C115.158 114.048 115.846 112.903 116.101 111.631C116.356 110.359 116.163 109.037 115.553 107.892C114.943 106.747 113.956 105.848 112.758 105.349C111.56 104.85 110.227 104.781 108.984 105.155C107.741 105.529 106.667 106.322 105.943 107.399C105.22 108.476 104.892 109.77 105.015 111.062ZM82.9921 109.954C82.8669 108.662 82.2977 107.454 81.3817 106.535C80.8611 106.011 80.2421 105.596 79.5604 105.313C78.8787 105.03 78.1477 104.884 77.4095 104.885C76.1118 104.884 74.8541 105.334 73.8506 106.157C72.847 106.979 72.1597 108.125 71.9057 109.397C71.6517 110.67 71.8467 111.991 72.4575 113.136C73.0683 114.281 74.0571 115.179 75.2556 115.677C76.454 116.174 77.7879 116.241 79.0302 115.866C80.2724 115.491 81.3462 114.697 82.0686 113.619C82.791 112.541 83.1174 111.245 82.9921 109.954Z" fill="url(#paint2_linear_1_76)"/>
<path fill-rule="evenodd" clip-rule="evenodd" d="M276.797 66.3294C280.697 68.442 283.744 71.6109 285.938 75.8362H302.636C299.467 67.7107 294.348 61.4541 287.279 57.0663C280.291 52.5973 272.287 50.3629 263.268 50.3629C255.386 50.3629 248.114 52.2317 241.451 55.9694C234.87 59.6259 229.629 64.7449 225.728 71.3265C221.909 77.9081 220 85.3429 220 93.6309C220 101.919 221.909 109.354 225.728 115.935C229.629 122.517 234.87 127.677 241.451 131.414C248.033 135.071 255.305 136.899 263.268 136.899C270.662 136.899 277.366 135.274 283.378 132.024C289.473 128.692 294.388 124.264 298.126 118.739C301.945 113.213 304.302 107.16 305.195 100.578C305.195 100.578 305.628 97.5485 305.628 95.4356C305.628 92.9694 305.195 89.7307 305.195 89.7307H258.515V100.822H290.326C289.269 108.054 286.385 113.782 281.672 118.007C276.959 122.232 270.825 124.345 263.268 124.345C257.661 124.345 252.664 123.086 248.277 120.567C243.889 118.048 240.436 114.473 237.917 109.841C235.479 105.128 234.26 99.725 234.26 93.6309C234.26 87.5368 235.479 82.174 237.917 77.5425C240.436 72.911 243.889 69.3358 248.277 66.8169C252.664 64.298 257.661 63.0386 263.268 63.0386C268.387 63.0386 272.897 64.1355 276.797 66.3294ZM330.356 136.168V80.9552H316.462V136.168H330.356ZM362.371 80.3458V117.52C362.371 120.039 362.94 121.867 364.077 123.004C365.296 124.061 367.328 124.589 370.172 124.589H378.703V136.168H367.734C361.477 136.168 356.683 134.705 353.352 131.78C350.02 128.855 348.355 124.101 348.355 117.52V80.3458H340.432V69.0108H348.355V51.4091H362.371V69.0108H378.703V80.3458H362.371ZM599.618 102.854L630.728 136.535H611.866L586.881 107.508V136.535H572.918V51.2656H586.881V98.5668L611.376 69.0497H630.728L599.618 102.854ZM435.023 136.535L402.077 98.4443V136.535H388.115V51.413H402.077V90.2383L435.146 51.413H452.66L415.672 94.0352L453.272 136.535H435.023ZM472.613 78.8479C474.655 75.4186 477.349 72.7649 480.697 70.8869C484.126 68.9273 488.168 67.9475 492.822 67.9475V82.3998H489.27C483.8 82.3998 479.635 83.7879 476.778 86.564C474.001 89.3402 472.613 94.1576 472.613 101.016V136.535H458.651V69.0497H472.613V78.8479ZM498.198 84.4819C495.422 89.7076 494.034 95.709 494.034 102.486C494.034 109.263 495.422 115.346 498.198 120.735C501.056 126.043 504.893 130.207 509.711 133.228C514.528 136.167 519.835 137.637 525.633 137.637C530.858 137.637 535.512 136.576 539.595 134.453C543.678 132.33 546.903 129.676 549.271 126.492V136.535H563.356V69.0497H549.271V78.8479C546.903 75.7452 543.718 73.1731 539.718 71.1318C535.798 69.0089 531.185 67.9475 525.878 67.9475C519.999 67.9475 514.61 69.4172 509.711 72.3566C504.893 75.2144 501.056 79.2562 498.198 84.4819ZM546.331 90.6058C548.291 94.0352 549.271 98.0769 549.271 102.731C549.271 107.385 548.291 111.468 546.331 114.979C544.453 118.408 541.963 121.021 538.86 122.817C535.757 124.614 532.41 125.512 528.817 125.512C525.306 125.512 521.958 124.614 518.774 122.817C515.671 120.939 513.14 118.245 511.18 114.734C509.302 111.223 508.363 107.14 508.363 102.486C508.363 97.832 509.302 93.831 511.18 90.4833C513.14 87.0539 515.671 84.4819 518.774 82.7672C521.877 80.9709 525.224 80.0727 528.817 80.0727C532.41 80.0727 535.757 80.9709 538.86 82.7672C541.963 84.5635 544.453 87.1764 546.331 90.6058ZM693.649 107.998C693.975 105.956 694.139 103.67 694.139 101.139C694.139 94.6067 692.751 88.8502 689.974 83.8695C687.198 78.8071 683.32 74.8879 678.339 72.1117C673.358 69.3355 667.684 67.9475 661.315 67.9475C654.701 67.9475 648.822 69.3763 643.678 72.2341C638.616 75.0919 634.655 79.1746 631.798 84.4819C629.021 89.7076 627.633 95.7907 627.633 102.731C627.633 109.671 629.062 115.795 631.92 121.103C634.86 126.328 638.86 130.411 643.923 133.35C649.067 136.208 654.864 137.637 661.315 137.637C669.235 137.637 675.849 135.678 681.156 131.758C686.545 127.757 690.26 122.654 692.301 116.449H677.237C674.134 122.736 668.827 125.879 661.315 125.879C656.089 125.879 651.68 124.246 648.087 120.98C644.494 117.714 642.494 113.387 642.086 107.998H693.649ZM674.052 84.3594C677.645 87.4622 679.482 91.5856 679.564 96.7297H642.208C642.861 91.5039 644.903 87.3805 648.332 84.3594C651.761 81.2567 655.885 79.7053 660.702 79.7053C666.01 79.7053 670.46 81.2567 674.052 84.3594ZM736.767 67.9475C742.074 67.9475 746.81 69.0497 750.974 71.2543C755.22 73.4589 758.527 76.725 760.895 81.0526C763.263 85.3801 764.447 90.6058 764.447 96.7297V136.535H750.607V98.8118C750.607 92.7696 749.096 88.1562 746.075 84.9718C743.054 81.7057 738.93 80.0727 733.705 80.0727C728.479 80.0727 724.315 81.7057 721.212 84.9718C718.191 88.1562 716.68 92.7696 716.68 98.8118V136.535H702.718V69.0497H716.68V76.7658C718.967 73.9897 721.865 71.8259 725.376 70.2745C728.969 68.7231 732.766 67.9475 736.767 67.9475ZM323.519 72.0409C320.569 72.0409 318.096 71.0486 316.097 69.0642C314.099 67.0797 313.1 64.6227 313.1 61.6932C313.1 58.7637 314.099 56.3067 316.097 54.3222C318.096 52.3377 320.569 51.3455 323.519 51.3455C326.374 51.3455 328.8 52.3377 330.798 54.3222C332.796 56.3067 333.796 58.7637 333.796 61.6932C333.796 64.6227 332.796 67.0797 330.798 69.0642C328.8 71.0486 326.374 72.0409 323.519 72.0409Z" fill="#1B2224"/>
<defs>
<linearGradient id="paint0_linear_1_76" x1="94" y1="0" x2="94" y2="188" gradientUnits="userSpaceOnUse">
<stop stop-color="#27312E"/>
<stop offset="1" stop-color="#0F1219"/>
</linearGradient>
<linearGradient id="paint1_linear_1_76" x1="26.0097" y1="5.90571e-07" x2="94" y2="188" gradientUnits="userSpaceOnUse">
<stop stop-color="white" stop-opacity="0.44"/>
<stop offset="1" stop-color="white" stop-opacity="0"/>
</linearGradient>
<linearGradient id="paint2_linear_1_76" x1="42.5109" y1="40.5909" x2="159.678" y2="157.403" gradientUnits="userSpaceOnUse">
<stop stop-color="#A7FBFF"/>
<stop offset="1" stop-color="#0C9689"/>
</linearGradient>
</defs>
</svg>
