<svg width="309" height="300" viewBox="0 0 309 300" fill="none" xmlns="http://www.w3.org/2000/svg">
<g clip-path="url(#clip0_579_31456)">
<path d="M55.202 0H253.92C284.048 0 308.407 24.359 308.407 54.4872V245.513C308.407 275.641 284.048 300 253.92 300H55.202C25.0738 300 0.714844 275.641 0.714844 245.513V54.4872C0.714844 24.359 25.0738 0 55.202 0Z" fill="#00005B"/>
<path d="M124.304 179.487H76.6121L66.8685 209.744C66.6121 210.898 65.5864 211.667 64.4326 211.539H40.33C38.9198 211.539 38.5351 210.769 38.9198 209.231L80.2018 90.8976C80.5864 89.6156 80.971 88.4617 81.4839 86.9233C81.9967 84.231 82.2531 81.4105 82.2531 78.5899C82.1249 77.9489 82.6377 77.3079 83.2787 77.1797H83.6633H116.484C117.381 77.1797 118.022 77.5643 118.151 78.2053L164.945 208.975C165.33 210.385 164.945 211.026 163.663 211.026H136.868C135.971 211.154 135.074 210.513 134.817 209.616L124.304 178.846V179.487ZM84.048 153.975H116.612C115.843 151.282 114.817 148.077 113.663 144.744C112.509 141.282 111.356 137.564 110.202 133.718C108.92 129.744 107.766 125.898 106.484 121.923C105.202 117.949 104.048 114.231 103.022 110.513C101.997 106.923 101.099 103.59 100.202 100.513H99.9454C98.7916 106.026 97.3813 111.539 95.5864 117.051C93.6633 123.205 91.7403 129.616 89.689 136.026C88.0223 142.564 85.971 148.59 84.048 153.975Z" fill="#9999FF"/>
<path d="M240.459 167.949H199.818C200.331 171.923 201.613 175.898 203.792 179.359C206.1 182.821 209.305 185.513 213.151 187.051C218.28 189.231 223.921 190.385 229.562 190.257C234.049 190.128 238.536 189.744 242.895 188.846C246.869 188.333 250.716 187.308 254.305 185.898C254.946 185.385 255.331 185.641 255.331 186.923V206.539C255.331 207.051 255.203 207.564 255.075 208.077C254.818 208.462 254.562 208.718 254.177 208.975C250.075 210.769 245.844 212.051 241.357 212.821C235.331 213.975 229.305 214.487 223.151 214.359C213.408 214.359 205.203 212.821 198.536 209.872C192.254 207.18 186.741 202.949 182.382 197.692C178.28 192.692 175.331 187.051 173.536 180.898C171.741 174.872 170.844 168.59 170.844 162.18C170.844 155.257 171.869 148.462 174.049 141.795C176.1 135.385 179.305 129.487 183.664 124.231C187.895 119.103 193.151 115 199.177 112.051C205.203 109.103 212.382 108.077 220.587 108.077C227.382 107.949 234.177 109.231 240.459 112.051C245.716 114.359 250.331 117.821 253.921 122.308C257.254 126.667 259.946 131.539 261.613 136.923C263.28 142.051 264.049 147.308 264.049 152.564C264.049 155.641 263.921 158.333 263.792 160.769C263.536 163.205 263.408 165 263.28 166.154C263.151 167.051 262.382 167.821 261.485 167.821C260.716 167.821 259.305 167.949 257.254 168.077C255.203 168.333 252.767 168.462 249.818 168.462C246.869 168.462 243.792 167.949 240.459 167.949ZM199.818 149.231H226.869C230.203 149.231 232.639 149.231 234.177 149.103C235.203 148.975 236.228 148.718 237.126 148.077V146.795C237.126 145.128 236.869 143.59 236.357 142.051C234.049 134.872 227.254 130 219.69 130.257C212.639 129.872 205.972 133.59 202.639 140C201.1 142.949 200.203 146.026 199.818 149.231Z" fill="#9999FF"/>
</g>
<defs>
<clipPath id="clip0_579_31456">
<rect width="307.692" height="300" fill="white" transform="translate(0.714844)"/>
</clipPath>
</defs>
</svg>
