<svg width="769" height="135" viewBox="0 0 769 135" fill="none" xmlns="http://www.w3.org/2000/svg">
<path d="M106.429 100.334L98.1447 117.655C97.9478 118.064 97.6397 118.408 97.2559 118.649C96.8722 118.89 96.4283 119.018 95.9752 119.018C95.522 119.018 95.0782 118.89 94.6944 118.649C94.3106 118.408 94.0025 118.064 93.8057 117.655L71.1542 70.388L67.7377 63.3158L64.0651 55.6287L45.0691 15.9802H65.2437C66.013 15.9803 66.7664 16.1987 67.4166 16.6099C68.0667 17.0211 68.5866 17.6083 68.9163 18.3034L72.5551 25.8881L77.5943 36.4108L84.6321 51.119L91.5848 65.605L95.2065 73.1895L106.378 96.5072C106.679 97.0987 106.84 97.7513 106.849 98.4146C106.857 99.078 106.714 99.7344 106.429 100.334ZM140.595 15.9802H124.332L119.6 25.8881C119.536 26.0219 119.436 26.1348 119.31 26.2138C119.185 26.2929 119.04 26.335 118.891 26.335C118.743 26.335 118.598 26.2929 118.472 26.2138C118.347 26.1348 118.246 26.0219 118.182 25.8881L114.544 18.3034C114.212 17.6096 113.692 17.0236 113.042 16.6126C112.393 16.2016 111.64 15.9823 110.871 15.9802H90.6965L116.713 70.3369C116.91 70.745 117.218 71.0893 117.602 71.3303C117.986 71.5713 118.43 71.699 118.883 71.699C119.336 71.699 119.78 71.5713 120.163 71.3303C120.547 71.0893 120.855 70.745 121.052 70.3369L144.285 21.8396C144.583 21.2117 144.717 20.5183 144.673 19.8246C144.63 19.1308 144.411 18.4595 144.037 17.8736C143.663 17.2877 143.146 16.8064 142.535 16.4752C141.924 16.144 141.238 15.9737 140.543 15.9802H140.595ZM68.9847 113.197L45.7523 64.6825C45.5554 64.2743 45.2477 63.93 44.8639 63.6891C44.4802 63.4481 44.0359 63.3202 43.5827 63.3202C43.1296 63.3202 42.6857 63.4481 42.302 63.6891C41.9182 63.93 41.6105 64.2743 41.4136 64.6825L15.3799 119.039H35.554C36.3253 119.038 37.0809 118.82 37.7336 118.409C38.3863 117.998 38.9099 117.411 39.2441 116.716L42.8654 109.131C42.9294 108.997 43.0298 108.885 43.1553 108.806C43.2807 108.726 43.4261 108.684 43.5744 108.684C43.7227 108.684 43.8681 108.726 43.9935 108.806C44.119 108.885 44.2194 108.997 44.2834 109.131L49.0324 119.039H65.3121C66.0008 119.037 66.6778 118.861 67.2802 118.527C67.8825 118.193 68.3904 117.712 68.757 117.129C69.1235 116.546 69.3365 115.88 69.3763 115.192C69.4161 114.505 69.2815 113.818 68.9847 113.197ZM491.983 53.8351C488.785 50.5486 484.916 47.9907 480.64 46.3359C471.024 42.8283 460.48 42.8283 450.865 46.3359C446.563 47.9894 442.666 50.5467 439.437 53.8351C436.176 57.2089 433.672 61.2388 432.091 65.6563C428.629 75.7949 428.629 86.7957 432.091 96.9343C433.671 101.393 436.174 105.467 439.437 108.892C442.644 112.223 446.546 114.807 450.865 116.46C460.48 119.967 471.024 119.967 480.64 116.46C484.933 114.806 488.807 112.221 491.983 108.892C495.224 105.463 497.703 101.388 499.259 96.9343C502.676 86.7881 502.676 75.8025 499.259 65.6563C497.677 61.2355 495.167 57.2047 491.897 53.8351H491.983ZM479.273 99.3601C476.352 103.443 471.859 105.493 465.761 105.493C459.662 105.493 455.016 103.443 452.095 99.3259C449.174 95.209 447.67 89.2301 447.67 81.3892C447.67 73.5484 449.139 67.5694 452.095 63.4013C455.05 59.2331 459.577 57.1661 465.761 57.1661C471.945 57.1661 476.352 59.2331 479.273 63.3842C482.194 67.5352 483.646 73.5142 483.646 81.3892C483.646 89.2643 482.109 95.2774 479.187 99.3601H479.273ZM288.444 21.6346V114.324C288.439 115.572 287.941 116.767 287.057 117.647C286.174 118.528 284.977 119.022 283.729 119.022H270.832V15.9802H282.79C284.273 16.007 285.687 16.6141 286.728 17.6711C287.769 18.7281 288.354 20.151 288.358 21.6346H288.444ZM323.378 21.6346V114.324C323.378 115.567 322.885 116.759 322.008 117.64C321.131 118.52 319.94 119.018 318.697 119.022H305.783V15.9802H317.741C319.223 16.007 320.634 16.6147 321.673 17.6721C322.711 18.7296 323.293 20.1525 323.293 21.6346H323.378ZM424.25 15.9802H416.836L385.217 81.97C385.118 82.1639 384.968 82.3267 384.782 82.4404C384.597 82.5541 384.383 82.6143 384.166 82.6143C383.948 82.6143 383.735 82.5541 383.55 82.4404C383.364 82.3267 383.214 82.1639 383.115 81.97L353.46 20.285C352.842 18.9986 351.872 17.9135 350.663 17.1548C349.453 16.3961 348.055 15.9948 346.627 15.9973H331.936L380.041 116.511C380.405 117.266 380.976 117.902 381.686 118.348C382.396 118.793 383.217 119.03 384.055 119.03C384.893 119.03 385.715 118.793 386.425 118.348C387.135 117.902 387.705 117.266 388.069 116.511L430.981 26.8275C431.535 25.6742 431.788 24.3991 431.716 23.1214C431.644 21.8437 431.249 20.6052 430.568 19.5216C429.888 18.438 428.943 17.5447 427.823 16.9254C426.703 16.3061 425.444 15.9808 424.165 15.9802H424.25ZM210.394 18.5767L162.29 119.09H176.98C178.407 119.091 179.805 118.689 181.014 117.93C182.223 117.172 183.193 116.088 183.813 114.803L191.979 97.72H236.872L247.121 119.039H254.535C255.814 119.04 257.072 118.717 258.193 118.099C259.313 117.482 260.258 116.591 260.94 115.509C261.623 114.428 262.02 113.191 262.095 111.914C262.17 110.638 261.92 109.363 261.368 108.209L218.44 18.5254C218.077 17.7628 217.504 17.1194 216.789 16.6706C216.074 16.2218 215.245 15.9862 214.401 15.9916C213.556 15.997 212.731 16.2432 212.021 16.701C211.311 17.1589 210.747 17.8095 210.394 18.5767ZM200.401 80.1765L213.366 53.1005C213.462 52.9059 213.61 52.7421 213.795 52.6275C213.979 52.513 214.191 52.4522 214.408 52.4522C214.625 52.4522 214.838 52.513 215.022 52.6275C215.206 52.7421 215.354 52.9059 215.45 53.1005L228.416 80.1765H200.401ZM536.67 51.6314V114.393C536.67 115.639 536.175 116.833 535.294 117.714C534.413 118.595 533.219 119.09 531.973 119.09H519.075V45.9088H531.033C532.53 45.9133 533.963 46.5111 535.02 47.571C536.077 48.6309 536.67 50.0665 536.67 51.5632V51.6314ZM753.619 94.7819C753.654 98.126 752.997 101.441 751.688 104.519C750.414 107.479 748.487 110.113 746.051 112.223C743.377 114.533 740.262 116.276 736.895 117.348C732.852 118.626 728.629 119.243 724.39 119.176C721.92 119.174 719.456 118.945 717.028 118.492C714.704 118.04 712.42 117.406 710.195 116.596C708.069 115.832 706.016 114.877 704.062 113.743C702.291 112.735 700.631 111.545 699.108 110.19L703.174 103.477C703.635 102.725 704.267 102.093 705.019 101.632C705.851 101.18 706.789 100.962 707.735 101C708.833 101.003 709.907 101.323 710.827 101.922C711.806 102.537 712.945 103.204 714.243 103.921C715.698 104.698 717.212 105.361 718.77 105.903C720.905 106.584 723.14 106.901 725.381 106.842C727.203 106.877 729.019 106.624 730.762 106.091C732.098 105.657 733.347 104.992 734.452 104.126C735.382 103.377 736.12 102.416 736.604 101.324C737.044 100.269 737.27 99.1369 737.27 97.9934C737.334 96.4444 736.781 94.9334 735.733 93.7912C734.567 92.6077 733.195 91.6467 731.684 90.9554C729.819 90.0791 727.889 89.348 725.911 88.7688C723.741 88.1368 721.52 87.4193 719.265 86.6677C717.005 85.9067 714.791 85.0112 712.638 83.9858C710.527 83.003 708.584 81.6944 706.881 80.1081C705.148 78.4792 703.765 76.5147 702.815 74.3342C701.724 71.7237 701.2 68.9115 701.277 66.0834C701.248 63.1486 701.83 60.24 702.986 57.5421C704.19 54.8165 705.981 52.39 708.23 50.4357C710.749 48.3037 713.647 46.6637 716.771 45.6012C720.625 44.3194 724.669 43.7015 728.729 43.7735C733.438 43.7116 738.114 44.5644 742.498 46.2846C745.364 47.4093 748.061 48.9271 750.509 50.7944C751.181 51.3247 751.628 52.0875 751.764 52.932C751.9 53.7765 751.715 54.6413 751.244 55.3555L748.835 59.182C748.468 59.8227 747.96 60.3716 747.349 60.7876C746.736 61.1156 746.046 61.2748 745.35 61.2489C744.391 61.2228 743.45 60.9775 742.6 60.5315L739.184 58.9257C737.766 58.2877 736.305 57.7512 734.811 57.32C732.916 56.8184 730.962 56.5769 729.003 56.6025C726.102 56.4444 723.227 57.223 720.803 58.8233C719.861 59.4597 719.093 60.3209 718.568 61.3292C718.043 62.3374 717.778 63.4604 717.797 64.597C717.765 66.0693 718.317 67.4945 719.334 68.5602C720.515 69.7247 721.891 70.6729 723.4 71.3618C725.254 72.2323 727.173 72.9577 729.139 73.5313C731.257 74.1805 733.461 74.8808 735.682 75.6324C737.903 76.3841 740.106 77.3407 742.258 78.2461C744.344 79.1827 746.274 80.4326 747.981 81.9529C749.819 83.5514 751.276 85.5408 752.246 87.7754C753.215 90.01 753.673 92.4332 753.584 94.8674L753.619 94.7819ZM614.123 105.134C614.561 105.691 614.781 106.39 614.74 107.098C614.699 107.806 614.4 108.475 613.9 108.978C612.492 110.399 610.954 111.686 609.305 112.821C607.093 114.326 604.714 115.569 602.216 116.528C599.764 117.448 597.222 118.106 594.631 118.492C592.056 118.857 589.459 119.045 586.859 119.056C582.479 119.076 578.139 118.216 574.098 116.528C570.126 114.851 566.566 112.334 563.661 109.148C560.558 105.695 558.161 101.668 556.606 97.293C554.789 92.1556 553.904 86.7351 553.992 81.2866C553.949 76.2167 554.734 71.1737 556.315 66.3565C557.758 61.9481 560.083 57.8795 563.148 54.3988C566.224 50.9879 570.016 48.2988 574.252 46.5237C579.091 44.5518 584.282 43.5868 589.507 43.688C594.425 43.5738 599.315 44.4692 603.873 46.3188C607.195 47.7359 610.273 49.667 612.995 52.0414C613.545 52.5154 613.897 53.1782 613.983 53.8991C614.068 54.62 613.88 55.3469 613.456 55.9362L610.313 60.2753C609.872 60.8592 609.362 61.3868 608.793 61.8467C608.144 62.2651 607.377 62.4629 606.606 62.4106C605.667 62.4053 604.751 62.1198 603.975 61.5906C603.121 61.0611 602.096 60.4289 600.9 59.7456C599.551 58.9908 598.132 58.3673 596.664 57.8837C594.691 57.2976 592.64 57.021 590.583 57.0637C587.779 57.0193 585.001 57.603 582.452 58.772C580.144 59.8606 578.147 61.511 576.643 63.5721C575.019 65.8521 573.858 68.4292 573.227 71.1568C572.422 74.4606 572.038 77.8525 572.082 81.2524C572.04 84.7599 572.46 88.2577 573.329 91.6559C574.025 94.418 575.243 97.0215 576.917 99.3259C578.426 101.315 580.38 102.924 582.622 104.024C584.993 105.117 587.579 105.665 590.19 105.629C592.512 105.703 594.828 105.35 597.023 104.587C598.565 103.997 600.032 103.228 601.396 102.298C602.575 101.478 603.617 100.71 604.488 100.026C605.328 99.3584 606.37 98.9966 607.443 99.0012C608.083 98.9702 608.719 99.1126 609.284 99.4133C609.849 99.714 610.323 100.162 610.655 100.709L614.123 105.134ZM520.169 27.9037C519.713 26.8772 519.486 25.7641 519.502 24.6411C519.482 23.4681 519.709 22.304 520.169 21.2246C520.599 20.2111 521.22 19.289 521.996 18.5083C522.775 17.7372 523.69 17.1175 524.695 16.6806C525.731 16.2345 526.848 16.0076 527.975 16.0144C529.148 15.9996 530.311 16.2264 531.392 16.6806C532.412 17.1171 533.344 17.7365 534.142 18.5083C534.945 19.2813 535.589 20.2042 536.038 21.2246C536.508 22.3018 536.747 23.4658 536.739 24.6411C536.744 25.7666 536.505 26.8797 536.038 27.9037C535.58 28.9038 534.937 29.8081 534.142 30.5687C533.344 31.3405 532.412 31.9599 531.392 32.3964C530.314 32.86 529.149 33.0872 527.975 33.0627C526.847 33.0782 525.728 32.851 524.695 32.3964C522.674 31.5235 521.057 29.9187 520.169 27.9037ZM681.496 52.3831C678.663 49.5438 675.256 47.3422 671.503 45.9259C667.429 44.4277 663.116 43.6866 658.776 43.7393C653.725 43.6558 648.71 44.6215 644.051 46.575C639.876 48.361 636.117 50.9964 633.016 54.3135C629.946 57.6304 627.581 61.5356 626.063 65.7929C624.424 70.2974 623.603 75.0584 623.637 79.8518C623.527 85.6228 624.471 91.3655 626.422 96.7977C628.086 101.364 630.68 105.535 634.041 109.046C637.254 112.334 641.141 114.887 645.435 116.528C649.971 118.237 654.783 119.094 659.63 119.056C662.288 119.041 664.941 118.853 667.574 118.492C670.313 118.101 673.008 117.443 675.62 116.528C678.282 115.588 680.827 114.345 683.204 112.821C684.932 111.721 686.535 110.438 687.988 108.995C688.491 108.491 688.793 107.821 688.838 107.11C688.882 106.399 688.664 105.696 688.227 105.134L684.639 100.675C684.302 100.133 683.828 99.6889 683.264 99.3889C682.7 99.0889 682.066 98.9434 681.428 98.9672C680.221 98.9901 679.043 99.3318 678.011 99.958C676.85 100.624 675.5 101.359 673.945 102.162C672.213 103.051 670.407 103.788 668.547 104.365C666.149 105.081 663.653 105.421 661.151 105.373C658.589 105.488 656.031 105.081 653.632 104.176C651.233 103.272 649.042 101.889 647.194 100.112C643.675 96.5755 641.642 91.0751 641.147 83.5759H686.313C686.994 83.5911 687.671 83.481 688.312 83.2512C688.832 83.0352 689.269 82.6579 689.559 82.175C689.918 81.5402 690.133 80.8349 690.191 80.1081C690.326 79.0087 690.389 77.9015 690.379 76.7939C690.459 71.9974 689.66 67.2267 688.021 62.7179C686.591 58.8274 684.356 55.2825 681.462 52.3147L681.496 52.3831ZM641.523 73.0188C641.998 68.4172 643.945 64.0917 647.075 60.6852C649.664 58.5353 652.784 57.1204 656.108 56.5885C659.431 56.0566 662.837 56.4273 665.968 57.6616C667.838 58.4787 669.497 59.7114 670.82 61.266C672.12 62.8165 673.086 64.6195 673.655 66.5615C674.287 68.6553 674.604 70.8316 674.595 73.0188H641.523Z" fill="#16274C"/>
</svg>
