<svg width="370" height="300" viewBox="0 0 370 300" fill="none" xmlns="http://www.w3.org/2000/svg">
<path d="M145.763 166.45C147.108 142.444 158.864 121.294 176.599 106.301C193.992 91.5749 217.402 82.5742 242.944 82.5742C268.462 82.5742 291.872 91.5749 309.277 106.301C327 121.294 338.755 142.444 340.114 166.425C341.459 191.092 331.545 214.006 314.152 230.992C296.417 248.27 271.191 259.112 242.944 259.112C214.698 259.112 189.421 248.27 171.699 230.992C154.294 214.006 144.404 191.092 145.763 166.45Z" fill="white"/>
<path d="M193.008 168.621C193.698 156.303 199.73 145.451 208.83 137.758C217.755 130.202 229.766 125.583 242.873 125.583C255.966 125.583 267.978 130.202 276.908 137.758C286.002 145.451 292.034 156.303 292.731 168.608C293.421 181.264 288.334 193.022 279.41 201.738C270.31 210.603 257.366 216.166 242.873 216.166C228.379 216.166 215.41 210.603 206.316 201.738C197.385 193.022 192.311 181.264 193.008 168.621Z" fill="#265787"/>
<path d="M113.602 193.569C113.687 198.389 115.224 207.756 117.53 215.071C122.377 230.555 130.597 244.879 142.036 257.503C153.774 270.479 168.229 280.901 184.924 288.301C202.473 296.072 221.487 300.032 241.238 300C260.956 299.974 279.97 295.935 297.519 288.105C314.214 280.634 328.655 270.166 340.374 257.184C351.806 244.508 360.014 230.158 364.873 214.674C367.316 206.851 368.86 198.91 369.479 190.944C370.085 183.095 369.831 175.232 368.717 167.376C366.541 152.069 361.245 137.706 353.089 124.613C345.631 112.581 336.016 102.049 324.584 93.1831L324.61 93.1636L209.241 4.58079C209.137 4.50262 209.052 4.41807 208.941 4.34641C201.372 -1.464 188.644 -1.44442 180.319 4.37901C171.903 10.2676 170.939 20.0058 178.43 26.1484L178.397 26.181L226.516 65.3102L79.8535 65.4664H79.6581C67.5355 65.4794 55.882 73.4329 53.576 83.4838C51.2049 93.7237 59.4386 102.218 72.0431 102.263L72.0237 102.309L146.361 102.166L13.7103 203.985C13.5409 204.109 13.3585 204.239 13.2022 204.363C0.688809 213.944 -3.35629 229.877 4.52565 239.961C12.5248 250.214 29.5329 250.233 42.1765 240.02L114.573 180.769C114.573 180.769 113.518 188.768 113.602 193.569ZM299.636 220.354C284.719 235.551 263.835 244.169 241.238 244.215C218.608 244.254 197.724 235.714 182.807 220.543C175.518 213.15 170.163 204.643 166.861 195.582C163.623 186.677 162.366 177.226 163.2 167.689C163.988 158.368 166.763 149.476 171.193 141.432C175.544 133.524 181.537 126.378 188.937 120.333C203.437 108.517 221.898 102.12 241.205 102.094C260.532 102.068 278.98 108.406 293.493 120.183C300.88 126.202 306.866 133.322 311.218 141.217C315.667 149.255 318.422 158.114 319.243 167.461C320.064 176.984 318.806 186.423 315.569 195.334C312.26 204.421 306.925 212.928 299.636 220.354Z" fill="#EA7600"/>
</svg>
