<svg width="272" height="300" viewBox="0 0 272 300" fill="none" xmlns="http://www.w3.org/2000/svg">
<g clip-path="url(#clip0_579_31396)">
<path fill-rule="evenodd" clip-rule="evenodd" d="M128.333 2.04498C133.183 -0.67645 139.154 -0.67645 143.997 2.04498C167.961 15.495 240.075 55.9807 264.047 69.4306C268.897 72.1449 271.882 77.1735 271.882 82.6164C271.882 109.516 271.882 190.481 271.882 217.381C271.882 222.823 268.897 227.852 264.047 230.573C240.082 244.023 167.968 284.509 143.997 297.959C139.147 300.68 133.175 300.68 128.333 297.959C104.368 284.509 32.2541 244.023 8.28267 230.573C3.43981 227.852 0.454102 222.831 0.454102 217.388C0.454102 190.488 0.454102 109.523 0.454102 82.6235C0.454102 77.1806 3.43981 72.1521 8.28981 69.4306C32.2469 55.9807 104.375 15.495 128.333 2.04498Z" fill="#004482"/>
<path fill-rule="evenodd" clip-rule="evenodd" d="M2.62553 224.316C0.72553 221.773 0.454102 219.359 0.454102 216.109C0.454102 189.366 0.454102 108.866 0.454102 82.1162C0.454102 76.702 3.43267 71.702 8.26838 69.002C32.1469 55.6305 104.018 15.3806 127.897 2.00201C132.733 -0.705131 139.283 -0.647988 144.118 2.05915C167.997 15.4306 239.625 55.3377 263.504 68.7091C265.432 69.7948 266.904 71.102 268.218 72.8234L2.62553 224.316Z" fill="#659AD2"/>
<path fill-rule="evenodd" clip-rule="evenodd" d="M136.168 50.002C191.361 50.002 236.168 94.8091 236.168 150.002C236.168 205.195 191.361 250.002 136.168 250.002C80.9756 250.002 36.1685 205.195 36.1685 150.002C36.1685 94.8091 80.9756 50.002 136.168 50.002ZM136.168 100.002C163.761 100.002 186.168 122.402 186.168 150.002C186.168 177.595 163.761 200.002 136.168 200.002C108.576 200.002 86.1684 177.595 86.1684 150.002C86.1684 122.402 108.568 100.002 136.168 100.002Z" fill="white"/>
<path fill-rule="evenodd" clip-rule="evenodd" d="M268.204 72.8945C271.89 76.3445 271.818 81.5445 271.818 85.6374C271.818 112.744 271.59 189.844 271.883 216.952C271.911 219.78 270.975 222.759 269.575 225.002L133.261 150.002L268.204 72.8945Z" fill="#00599C"/>
</g>
<defs>
<clipPath id="clip0_579_31396">
<rect width="271.429" height="300" fill="white" transform="translate(0.454102)"/>
</clipPath>
</defs>
</svg>
