<svg width="268" height="300" viewBox="0 0 268 300" fill="none" xmlns="http://www.w3.org/2000/svg">
<g clip-path="url(#clip0_579_31389)">
<path d="M267.005 87.9712C267.003 82.94 265.927 78.4941 263.751 74.6785C261.614 70.9264 258.413 67.7816 254.119 65.2952C218.676 44.8587 183.199 24.4848 147.768 4.02748C138.216 -1.48711 128.954 -1.28607 119.473 4.30768C105.366 12.6275 34.7355 53.0931 13.6886 65.2837C5.02093 70.3014 0.803223 77.9806 0.801139 87.9619C0.787598 129.061 0.801139 170.159 0.787598 211.259C0.787598 216.18 1.81989 220.539 3.9001 224.297C6.03864 228.163 9.28447 231.394 13.6772 233.937C34.7251 246.127 105.365 286.59 119.469 294.912C128.954 300.509 138.216 300.709 147.771 295.192C183.203 274.734 218.682 254.361 254.13 233.924C258.523 231.383 261.769 228.149 263.907 224.287C265.984 220.529 267.019 216.169 267.019 211.247C267.019 211.247 267.019 129.071 267.005 87.9712Z" fill="#A179DC"/>
<path d="M134.31 149.209L3.8999 224.297C6.03844 228.163 9.28428 231.394 13.677 233.937C34.7249 246.127 105.364 286.59 119.469 294.912C128.954 300.508 138.216 300.708 147.771 295.192C183.203 274.733 218.682 254.361 254.13 233.924C258.523 231.382 261.769 228.149 263.907 224.287L134.31 149.209Z" fill="#280068"/>
<path d="M267.005 87.9714C267.003 82.9402 265.927 78.4943 263.751 74.6787L134.311 149.21L263.907 224.287C265.984 220.529 267.017 216.169 267.019 211.247C267.019 211.247 267.019 129.071 267.005 87.9714Z" fill="#390091"/>
<path d="M211.092 121.14V135.175H225.127V121.14H232.144V135.175H246.179V142.192H232.144V156.227H246.179V163.245H232.144V177.28H225.127V163.245H211.092V177.28H204.074V163.245H190.039V156.227H204.074V142.192H190.039V135.175H204.074V121.14H211.092ZM225.127 142.192H211.092V156.227H225.127V142.192Z" fill="white"/>
<path d="M134.597 50.6519C171.205 50.6519 203.167 70.5334 220.286 100.085L220.119 99.8008L177.048 124.601C168.561 110.233 153.004 100.536 135.159 100.337L134.597 100.334C107.382 100.334 85.3194 122.395 85.3194 149.61C85.3194 158.509 87.6921 166.851 91.8184 174.057C100.312 188.885 116.28 198.887 134.597 198.887C153.027 198.887 169.085 188.758 177.536 173.771L177.33 174.131L220.337 199.046C203.405 228.347 171.882 248.167 135.699 248.563L134.597 248.569C97.8731 248.569 65.8203 228.565 48.744 198.856C40.4075 184.353 35.6377 167.539 35.6377 149.61C35.6377 94.9575 79.9421 50.6519 134.597 50.6519Z" fill="white"/>
</g>
<defs>
<clipPath id="clip0_579_31389">
<rect width="266.667" height="300" fill="white" transform="translate(0.787598)"/>
</clipPath>
</defs>
</svg>
