<svg width="289" height="134" viewBox="0 0 289 134" fill="none" xmlns="http://www.w3.org/2000/svg">
<path d="M244.609 131.798H253.423V101.422C253.423 91.7502 258.608 84.5561 269.297 84.5561C276.038 84.5561 280.186 88.8326 280.186 95.3873V131.798H289V96.4264C289 84.8758 284.653 76.7624 270.534 76.7624C262.836 76.7624 256.853 79.8799 253.104 86.5545H252.905V78.0414H244.609V131.798ZM192.441 104.979C192.441 91.8701 199.899 84.596 209.152 84.596C218.405 84.596 225.864 91.8701 225.864 104.979C225.864 117.969 218.405 125.243 209.152 125.243C199.939 125.243 192.441 117.969 192.441 104.979ZM183.108 104.979C183.108 120.687 192.122 133.077 209.152 133.077C226.183 133.077 235.196 120.687 235.196 104.979C235.196 89.1523 226.183 76.8024 209.152 76.8024C192.122 76.8024 183.108 89.1923 183.108 104.979ZM180.555 78.0414H171.302L156.665 122.885H156.465L141.429 78.0414H131.578L151.52 131.798H160.972L180.555 78.0414ZM130.461 124.723C129.304 125.123 128.506 125.243 127.749 125.243C124.957 125.243 124.957 123.364 124.957 119.208V91.5504C124.957 78.9606 114.467 76.7624 104.815 76.7624C92.89 76.7624 82.5999 81.4386 82.0814 94.7478H90.8958C91.2946 86.8342 96.7987 84.5561 104.297 84.5561C109.921 84.5561 116.222 85.7951 116.222 93.5088C116.222 100.183 107.926 99.5439 98.1547 101.422C89.0213 103.181 80.0075 105.779 80.0075 117.969C80.0075 128.68 87.9843 133.037 97.7559 133.037C105.214 133.037 111.755 130.439 116.661 124.723C116.661 130.559 119.572 133.037 124.119 133.037C126.911 133.037 128.905 132.517 130.461 131.598V124.723V124.723ZM116.103 113.093C116.103 117.969 111.316 125.243 99.7102 125.243C94.3258 125.243 89.3403 123.165 89.3403 117.329C89.3403 110.775 94.3258 108.696 100.149 107.657C106.052 106.618 112.712 106.498 116.142 104.02V113.093H116.103ZM61.581 131.798H70.3954V57.5381H61.581V131.798V131.798ZM0 131.798H51.4903V123.484H9.85137V97.7853H48.3395V89.4721H9.85137V65.8513H51.1713V57.5381H0V131.798Z" fill="white"/>
<path d="M168.551 72.7655C183.747 48.3854 195.433 32.3185 204.127 21.8071C202.692 22.0869 201.296 22.4466 199.86 22.8063C185.382 43.4694 168.551 72.7655 168.551 72.7655Z" fill="#65B2E8"/>
<path d="M235.158 15.8936C235.158 15.8936 235.158 15.8936 235.118 15.8936C235.238 17.852 235.318 20.1701 235.278 22.7679C237.79 23.7671 240.144 25.126 242.058 26.9645C248.958 33.5991 253.106 47.0681 244.73 72.847C244.73 72.847 247.123 69.6896 250.035 59.5379C254.821 42.9115 255.539 19.8903 235.158 15.8936Z" fill="white"/>
<path d="M235.119 15.8918C234.959 13.214 234.72 11.0957 234.48 9.61695C234.281 8.21809 233.683 6.01988 233.364 5.10063C232.686 3.10226 231.689 1.86327 231.09 1.4636C230.412 0.983992 229.734 0.944024 229.734 0.944024L222.555 0.224611C218.407 0.104709 211.866 7.37878 211.866 7.37878C209.553 9.81679 206.921 13.0941 204.129 16.8511C205.924 16.4514 207.599 16.0917 209.274 15.8119C220.362 3.46197 225.108 1.90324 225.108 1.90324C226.863 4.78089 227.261 10.3763 227.261 14.6928C227.261 17.9302 227.022 20.4481 227.022 20.648V20.6879C225.746 35.1961 222.755 46.2271 219.843 54.1806C214.698 68.2891 209.593 72.8854 209.593 72.8854C219.923 72.8454 225.985 77.5615 225.985 77.5615C226.025 77.4816 226.065 77.3217 226.065 77.2418C233.324 52.462 235.198 34.3568 235.278 22.7263C235.318 20.1683 235.238 17.8502 235.119 15.8918Z" fill="#65B2E8"/>
<path d="M215.615 14.9719C213.501 15.1717 211.427 15.4515 209.273 15.8112C207.598 16.0909 205.923 16.4507 204.128 16.8503C199.741 17.8895 194.835 19.3683 188.733 21.6464C152.119 35.1554 114.469 72.8447 114.469 72.8447C114.469 72.8447 158.222 33.3968 199.901 22.8055C201.336 22.4458 202.732 22.126 204.168 21.8063C208.954 20.8071 213.661 20.2476 218.287 20.1676C220.481 20.1277 223.632 20.2076 227.022 20.6872C227.022 20.4874 227.261 17.9694 227.261 14.7321C224.15 14.5322 220.241 14.5322 215.615 14.9719Z" fill="white"/>
</svg>
