<svg width="300" height="300" viewBox="0 0 300 300" fill="none" xmlns="http://www.w3.org/2000/svg">
<rect width="300" height="300" fill="#1E1E1E"/>
<g clip-path="url(#clip0_579_31436)">
<path d="M150 151.667C150 143.268 153.336 135.214 159.275 129.275C165.214 123.336 173.268 120 181.667 120C190.065 120 198.12 123.336 204.058 129.275C209.997 135.214 213.333 143.268 213.333 151.667C213.333 160.065 209.997 168.12 204.058 174.058C198.12 179.997 190.065 183.333 181.667 183.333C173.268 183.333 165.214 179.997 159.275 174.058C153.336 168.12 150 160.065 150 151.667V151.667Z" fill="#1ABCFE"/>
<path d="M86.667 215C86.667 206.602 90.0033 198.547 95.9419 192.608C101.881 186.67 109.935 183.333 118.334 183.333H150V215C150 223.399 146.664 231.453 140.725 237.392C134.787 243.331 126.732 246.667 118.334 246.667C109.935 246.667 101.881 243.331 95.9419 237.392C90.0033 231.453 86.667 223.399 86.667 215V215Z" fill="#0ACF83"/>
<path d="M150 56.6665V120H181.667C190.065 120 198.12 116.664 204.058 110.725C209.997 104.786 213.333 96.7317 213.333 88.3332C213.333 79.9346 209.997 71.8801 204.058 65.9415C198.12 60.0028 190.065 56.6665 181.667 56.6665H150Z" fill="#FF7262"/>
<path d="M86.667 88.3332C86.667 96.7317 90.0033 104.786 95.9419 110.725C101.881 116.664 109.935 120 118.334 120H150V56.6665H118.334C109.935 56.6665 101.881 60.0028 95.9419 65.9415C90.0033 71.8801 86.667 79.9346 86.667 88.3332V88.3332Z" fill="#F24E1E"/>
<path d="M86.667 151.667C86.667 160.065 90.0033 168.12 95.9419 174.058C101.881 179.997 109.935 183.333 118.334 183.333H150V120H118.334C109.935 120 101.881 123.336 95.9419 129.275C90.0033 135.214 86.667 143.268 86.667 151.667V151.667Z" fill="#A259FF"/>
</g>
<defs>
<clipPath id="clip0_579_31436">
<rect width="126.667" height="190" fill="white" transform="translate(86.667 56.6665)"/>
</clipPath>
</defs>
</svg>
