<svg width="738" height="172" viewBox="0 0 738 172" fill="none" xmlns="http://www.w3.org/2000/svg">
<g clip-path="url(#clip0_579_31205)">
<path d="M222.323 47.6083C225.551 47.6083 228.319 48.9921 230.164 49.4533L233.854 41.1508C231.548 39.7671 227.396 38.3833 221.861 38.3833C210.791 38.3833 203.411 45.7633 203.411 56.8333V65.1358H190.035V74.3608H203.411V122.331H213.098V74.8221H232.47V65.5971H213.098V57.7558C213.098 51.7596 216.326 47.6083 222.323 47.6083ZM278.595 103.42C276.289 109.877 270.754 114.49 263.374 114.49C255.071 114.49 249.536 108.955 249.536 98.8071V65.1358H239.85V100.191C239.85 114.49 248.614 123.253 261.068 123.253C267.525 123.253 274.444 120.486 278.134 114.951V122.331H287.82V65.5971H278.134V103.42H278.595ZM324.259 64.6746C316.879 64.6746 310.421 67.4421 306.27 72.9771V65.5971H296.584V122.331H306.27V84.5083C308.576 78.0508 314.111 73.4383 321.953 73.4383C330.716 73.4383 336.251 78.9733 336.251 89.1208V122.792H345.938V87.7371C345.938 73.4383 337.174 64.6746 324.259 64.6746ZM382.376 73.8996C390.679 73.8996 397.136 78.512 400.365 84.9696L409.129 80.357C406.538 75.6753 402.723 71.7859 398.092 69.1048C393.461 66.4237 388.188 65.0518 382.838 65.1358C365.771 65.1358 352.856 78.0508 352.856 94.6558C352.856 111.261 365.31 124.176 382.838 124.176C394.369 124.176 404.055 118.18 409.129 108.955L400.365 104.342C397.136 110.8 390.679 115.412 382.376 115.412C370.384 115.412 362.543 106.187 362.543 95.1171C362.543 82.6633 370.384 73.8996 382.376 73.8996ZM446.951 114.49C441.878 114.49 437.726 111.722 437.726 104.803V74.8221H455.254V65.5971H437.726V49.4533H428.04V65.5971H413.741V74.8221H428.04V105.726C428.04 117.718 436.343 123.253 446.029 123.253C452.025 123.253 455.715 121.87 458.483 120.486L455.715 112.183C453.409 113.567 450.641 114.49 446.951 114.49ZM470.014 38.8446C466.324 38.8446 463.095 42.0733 463.095 45.7633C463.095 49.4533 466.324 52.6821 470.014 52.6821C473.704 52.6821 476.933 49.4533 476.933 45.7633C476.933 42.0733 474.165 38.8446 470.014 38.8446ZM464.94 65.5971H474.626V122.331H464.94V65.5971ZM512.91 64.6746C505.081 64.6746 497.572 67.7847 492.036 73.3208C486.5 78.8568 483.39 86.3654 483.39 94.1946C483.39 102.024 486.5 109.532 492.036 115.068C497.572 120.604 505.081 123.715 512.91 123.715C529.976 123.715 542.43 110.338 542.43 94.1946C542.43 78.0508 529.976 64.6746 512.91 64.6746ZM512.91 114.49C500.918 114.49 493.076 105.265 493.076 94.1946C493.076 82.6633 500.918 73.8996 512.91 73.8996C524.903 73.8996 532.744 83.1245 532.744 94.1946C532.744 105.726 524.903 114.49 512.91 114.49ZM577.946 64.6746C570.566 64.6746 564.109 67.4421 559.958 72.9771V65.5971H550.271V122.331H559.958V84.5083C562.264 78.0508 567.799 73.4383 575.64 73.4383C584.404 73.4383 589.939 78.9733 589.939 89.1208V122.792H599.625V87.7371C599.164 73.4383 590.4 64.6746 577.946 64.6746ZM613.924 38.8446C610.234 38.8446 607.005 42.0733 607.005 45.7633C607.005 49.4533 610.234 52.6821 613.924 52.6821C617.614 52.6821 620.843 49.4533 620.843 45.7633C620.843 42.0733 618.075 38.8446 613.924 38.8446ZM608.85 65.5971H618.536V122.331H608.85V65.5971ZM674.809 73.4383V65.5971H629.606V74.8221H661.894L629.145 114.951V122.792H675.731V113.567H642.06L674.809 73.4383ZM737.078 93.2721C737.078 74.8221 725.085 64.6746 709.864 64.6746C705.953 64.5462 702.057 65.222 698.417 66.6601C694.777 68.0982 691.472 70.268 688.705 73.0352C685.937 75.8024 683.768 79.1081 682.329 82.7477C680.891 86.3872 680.216 90.2833 680.344 94.1946C680.344 110.8 692.336 123.715 709.864 123.715C721.856 123.715 730.159 118.641 735.694 110.338L727.853 104.803C724.163 110.8 718.628 114.49 709.864 114.49C698.794 114.49 690.491 106.648 690.03 95.5783H736.616C737.078 94.6558 737.078 94.1946 737.078 93.2721ZM690.953 88.1983C692.798 78.9733 701.1 73.4383 709.864 73.4383C718.628 73.4383 726.008 78.9733 727.391 88.1983H690.953Z" fill="black"/>
<path d="M71.0329 62.3683L98.2466 83.1245C99.1691 83.5858 100.092 83.5858 100.553 82.6633L111.162 68.8258C111.623 67.9033 111.623 66.9808 110.7 66.5195L88.0991 49.4533C87.1766 48.992 87.1766 48.0695 87.6379 47.147L97.3241 34.232C97.7854 33.3095 98.7079 33.3095 99.6304 33.7708L122.232 50.837C123.154 51.2983 124.077 51.2983 124.538 50.3758L143.449 25.4683C143.91 24.5458 143.91 23.6233 143.449 23.162C127.634 8.25073 106.602 0.136069 84.8703 0.560792C38.7453 1.48329 0.922852 39.3058 0.922852 85.892C0.922852 101.575 5.0741 115.873 12.4541 128.327C12.9154 129.25 14.7604 129.711 15.6829 128.327L65.0366 63.2908C66.4204 61.4458 69.1879 60.9845 71.0329 62.3683Z" fill="#00B2FF"/>
<path d="M156.364 42.996L106.549 108.493C105.165 110.338 102.398 110.8 100.553 109.416L73.3388 88.6597C72.4163 88.1985 71.4938 88.1985 71.0325 89.121L60.4238 102.958C59.9625 103.881 59.9625 104.803 60.885 105.265L83.4863 122.331C84.4088 122.792 84.4088 123.715 83.9475 124.637L73.8 137.091C73.3388 138.013 72.4163 138.013 71.4938 137.552L49.3538 120.486C48.4313 120.025 47.5088 120.025 47.0475 120.947L27.675 145.855C27.2138 146.777 27.2138 147.7 27.675 148.161C43.49 163.072 64.5218 171.187 86.2538 170.762C132.84 170.301 170.663 132.478 170.663 85.8922C170.663 70.2097 166.511 55.911 159.131 43.4572C158.67 42.0735 157.286 42.0735 156.364 42.996Z" fill="#22E8B3"/>
</g>
<defs>
<clipPath id="clip0_579_31205">
<rect width="738" height="170.663" fill="white" transform="translate(0 0.560547)"/>
</clipPath>
</defs>
</svg>
