<svg width="301" height="300" viewBox="0 0 301 300" fill="none" xmlns="http://www.w3.org/2000/svg">
<path d="M33.2017 220.77L43.9834 226.995L164.096 18.9603L153.314 12.7353L33.2017 220.77Z" fill="#E535AB"/>
<path d="M270.958 204.15H30.7334V216.6H270.958V204.15Z" fill="#E535AB"/>
<path d="M35.4875 211.144L155.645 280.519L161.87 269.737L41.7125 200.362L35.4875 211.144Z" fill="#E535AB"/>
<path d="M139.867 30.3359L260.024 99.7109L266.249 88.9292L146.092 19.5542L139.867 30.3359Z" fill="#E535AB"/>
<path d="M35.5196 88.8809L41.7446 99.6626L161.902 30.2876L155.677 19.5059L35.5196 88.8809Z" fill="#E535AB"/>
<path d="M137.697 18.9627L257.81 226.998L268.591 220.773L148.479 12.7377L137.697 18.9627Z" fill="#E535AB"/>
<path d="M52.7088 80.625H40.2588V219.375H52.7088V80.625Z" fill="#E535AB"/>
<path d="M261.508 80.625H249.058V219.375H261.508V80.625Z" fill="#E535AB"/>
<path d="M148.087 265.831L153.525 275.249L258.029 214.911L252.592 205.493L148.087 265.831Z" fill="#E535AB"/>
<path d="M278.009 223.425C270.809 235.95 254.759 240.225 242.234 233.025C229.709 225.825 225.434 209.775 232.634 197.25C239.834 184.725 255.884 180.45 268.409 187.65C281.009 194.925 285.284 210.9 278.009 223.425Z" fill="#E535AB"/>
<path d="M69.058 102.75C61.858 115.275 45.808 119.55 33.283 112.35C20.758 105.15 16.483 89.1 23.683 76.575C30.883 64.05 46.933 59.775 59.458 66.975C71.983 74.25 76.258 90.225 69.058 102.75Z" fill="#E535AB"/>
<path d="M23.7582 223.425C16.5582 210.9 20.8332 194.925 33.3582 187.65C45.8832 180.45 61.8582 184.725 69.1332 197.25C76.3332 209.775 72.0582 225.75 59.5332 233.025C46.9332 240.225 30.9582 235.95 23.7582 223.425Z" fill="#E535AB"/>
<path d="M232.708 102.75C225.508 90.225 229.783 74.25 242.308 66.975C254.833 59.775 270.808 64.05 278.083 76.575C285.283 89.1 281.008 105.075 268.483 112.35C255.958 119.55 239.908 115.275 232.708 102.75Z" fill="#E535AB"/>
<path d="M150.883 296.85C136.408 296.85 124.708 285.15 124.708 270.675C124.708 256.2 136.408 244.5 150.883 244.5C165.358 244.5 177.058 256.2 177.058 270.675C177.058 285.075 165.358 296.85 150.883 296.85Z" fill="#E535AB"/>
<path d="M150.883 55.4999C136.408 55.4999 124.708 43.7999 124.708 29.3249C124.708 14.8499 136.408 3.1499 150.883 3.1499C165.358 3.1499 177.058 14.8499 177.058 29.3249C177.058 43.7999 165.358 55.4999 150.883 55.4999Z" fill="#E535AB"/>
</svg>
