<svg width="308" height="300" viewBox="0 0 308 300" fill="none" xmlns="http://www.w3.org/2000/svg">
<g clip-path="url(#clip0_579_31453)">
<path d="M54.5096 0H253.228C283.356 0 307.715 24.359 307.715 54.4872V245.513C307.715 275.641 283.356 300 253.228 300H54.5096C24.3814 300 0.0224609 275.641 0.0224609 245.513V54.4872C0.0224609 24.359 24.3814 0 54.5096 0Z" fill="#330000"/>
<path d="M148.74 179.487H101.048L91.304 209.616C91.0476 210.769 90.022 211.539 88.8681 211.41H64.7656C63.3553 211.41 62.9707 210.641 63.3553 209.103L104.637 90.2565C105.022 88.9745 105.407 87.5642 105.919 86.0258C106.432 83.3334 106.689 80.5129 106.689 77.6924C106.56 77.0514 107.073 76.4104 107.714 76.2822H140.919C141.945 76.2822 142.458 76.6668 142.586 77.3078L189.381 209.359C189.766 210.769 189.381 211.41 188.099 211.41H161.304C160.407 211.539 159.509 210.898 159.253 210L148.74 179.487ZM108.483 153.462H141.048C140.278 150.769 139.253 147.564 138.099 144.231C136.945 140.769 135.791 137.051 134.637 133.205C133.355 129.231 132.201 125.385 130.919 121.41C129.637 117.436 128.483 113.718 127.458 110C126.432 106.41 125.535 103.077 124.637 100H124.381C123.227 105.513 121.817 111.026 120.022 116.539C118.099 122.692 116.176 129.103 114.125 135.513C112.33 142.051 110.407 148.077 108.483 153.462ZM217.971 98.7181C213.74 98.8463 209.637 97.1796 206.56 94.2309C203.612 91.0258 202.073 86.795 202.201 82.436C202.073 78.077 203.74 73.9745 206.817 71.0258C209.894 68.077 213.996 66.5386 218.227 66.5386C223.227 66.5386 227.073 68.077 229.894 71.0258C232.714 74.1027 234.253 78.2052 234.125 82.436C234.253 86.795 232.714 91.0258 229.637 94.2309C226.689 97.3078 222.33 98.9745 217.971 98.7181ZM203.612 210V111.282C203.612 110 204.125 109.487 205.278 109.487H230.663C231.817 109.487 232.33 110.128 232.33 111.282V210C232.33 211.41 231.817 212.051 230.663 212.051H205.535C204.253 212.051 203.612 211.282 203.612 210Z" fill="#FF9A00"/>
</g>
<defs>
<clipPath id="clip0_579_31453">
<rect width="307.692" height="300" fill="white" transform="translate(0.0224609)"/>
</clipPath>
</defs>
</svg>
