<svg width="308" height="300" viewBox="0 0 308 300" fill="none" xmlns="http://www.w3.org/2000/svg">
<g clip-path="url(#clip0_579_31476)">
<path d="M54.5868 0H253.305C283.433 0 307.792 24.359 307.792 54.4872V245.513C307.792 275.641 283.433 300 253.305 300H54.5868C24.4586 300 0.0996094 275.641 0.0996094 245.513V54.4872C0.0996094 24.359 24.4586 0 54.5868 0Z" fill="#49021F"/>
<path d="M111.894 78.4616V210.513C111.894 211.923 111.253 212.564 110.1 212.564H84.9713C83.8175 212.564 83.3047 211.923 83.3047 210.513V78.4616C83.3047 77.3077 83.9457 76.7949 85.0996 76.7949H110.1C110.869 76.6667 111.638 77.1795 111.766 78.0769C111.894 78.2051 111.894 78.3333 111.894 78.4616Z" fill="#FF3366"/>
<path d="M185.997 214.103C176.51 214.231 167.022 212.308 158.433 208.334C150.356 204.616 143.689 198.462 139.074 190.898C134.33 183.077 132.022 173.334 132.022 161.667C131.894 152.18 134.33 142.821 139.074 134.616C143.945 126.282 150.997 119.359 159.458 114.744C168.433 109.744 179.202 107.308 191.894 107.308C192.535 107.308 193.433 107.308 194.586 107.436C195.74 107.564 197.022 107.564 198.561 107.693V67.1797C198.561 66.2823 198.945 65.7694 199.843 65.7694H225.869C226.51 65.6412 227.022 66.1541 227.151 66.6669V66.9233V188.975C227.151 191.282 227.279 193.846 227.407 196.667C227.663 199.359 227.792 201.923 227.92 204.103C227.92 205 227.535 205.769 226.638 206.154C219.971 208.975 212.92 211.026 205.74 212.308C199.33 213.462 192.663 214.103 185.997 214.103ZM198.561 188.462V132.051C197.407 131.795 196.253 131.539 195.099 131.41C193.689 131.282 192.279 131.154 190.869 131.154C185.869 131.154 180.869 132.18 176.381 134.487C172.022 136.667 168.304 139.872 165.484 143.975C162.663 148.077 161.253 153.59 161.253 160.257C161.125 164.744 161.894 169.231 163.433 173.462C164.715 176.923 166.638 180 169.202 182.564C171.638 184.872 174.586 186.667 177.92 187.693C181.381 188.846 184.971 189.359 188.561 189.359C190.484 189.359 192.279 189.231 193.945 189.103C195.612 189.231 197.151 188.975 198.561 188.462Z" fill="#FF3366"/>
</g>
<defs>
<clipPath id="clip0_579_31476">
<rect width="307.692" height="300" fill="white" transform="translate(0.0996094)"/>
</clipPath>
</defs>
</svg>
