<svg width="301" height="300" viewBox="0 0 301 300" fill="none" xmlns="http://www.w3.org/2000/svg">
<g clip-path="url(#clip0_579_31379)">
<path d="M109.743 231.938C109.743 231.938 98.2121 238.951 117.759 240.957C141.29 243.957 153.825 243.46 179.868 238.454C185.103 241.659 190.638 244.344 196.396 246.47C137.803 271.52 63.6558 244.97 109.743 231.938ZM102.243 199.379C102.243 199.379 89.7183 208.895 109.256 210.91C134.803 213.413 154.837 213.91 189.412 206.907C192.775 210.317 196.892 212.89 201.431 214.417C130.8 235.454 51.6558 216.413 102.243 199.379ZM240.496 256.473C240.496 256.473 249.009 263.485 230.981 268.998C197.418 279.029 90.2246 282.029 60.1683 268.998C49.6496 264.498 69.684 257.982 76.1058 256.979C82.6215 255.479 86.1371 255.479 86.1371 255.479C74.6058 247.463 9.49646 272.007 53.0808 279.01C172.8 298.548 271.481 270.498 240.421 256.473H240.496ZM115.162 165.31C115.162 165.31 60.5621 178.342 95.6246 182.842C110.653 184.848 140.203 184.342 167.756 182.345C190.293 180.338 212.85 176.345 212.85 176.345C212.85 176.345 204.834 179.851 199.321 183.357C143.728 197.888 37.0215 191.373 67.584 176.345C93.6277 163.82 115.171 165.329 115.171 165.329L115.162 165.31ZM212.85 219.91C268.95 190.848 242.906 162.817 224.868 166.313C220.368 167.317 218.353 168.32 218.353 168.32C218.353 168.32 219.853 165.32 223.359 164.317C258.928 151.792 286.978 201.882 211.828 221.41C211.828 221.41 212.325 220.913 212.831 219.91H212.85ZM120.693 299.054C174.787 302.56 257.446 297.048 259.443 271.492C259.443 271.492 255.44 281.523 214.865 289.023C168.778 297.535 111.675 296.523 78.1121 291.029C78.1121 291.029 85.1246 297.038 120.693 299.054Z" fill="#4E7896"/>
<path d="M178.874 0.00878906C178.874 0.00878906 209.933 31.565 149.324 79.1525C100.733 117.721 138.308 139.762 149.324 164.812C120.768 139.265 100.236 116.718 114.261 95.69C134.793 64.6213 191.399 49.6869 178.874 0.00878906ZM162.936 143.774C177.468 160.303 158.933 175.331 158.933 175.331C158.933 175.331 196.002 156.299 178.968 132.749C163.443 110.212 151.405 99.1869 216.533 61.6213C216.533 61.6213 113.849 87.1682 162.936 143.774Z" fill="#F58219"/>
</g>
<defs>
<clipPath id="clip0_579_31379">
<rect width="300" height="300" fill="white" transform="translate(0.787598)"/>
</clipPath>
</defs>
</svg>
