<svg width="264" height="300" viewBox="0 0 264 300" fill="none" xmlns="http://www.w3.org/2000/svg">
<mask id="mask0_579_31511" style="mask-type:luminance" maskUnits="userSpaceOnUse" x="0" y="0" width="264" height="300">
<path d="M124.871 1.89777L7.29108 69.7634C2.88708 72.3031 0.185547 76.9918 0.185547 82.06V217.886C0.185547 222.957 2.88708 227.643 7.29108 230.183L124.879 298.102C129.275 300.633 134.694 300.633 139.084 298.102L256.653 230.183C261.034 227.643 263.742 222.954 263.742 217.886V82.06C263.742 76.9918 261.035 72.3031 256.625 69.7634L139.073 1.89777C136.869 0.633508 134.413 0 131.957 0C129.501 0 127.045 0.633508 124.84 1.89777" fill="white"/>
</mask>
<g mask="url(#mask0_579_31511)">
<path d="M382.559 58.2402L51.2408 -104.161L-118.64 242.393L212.67 404.802L382.559 58.2402Z" fill="url(#paint0_linear_579_31511)"/>
</g>
<mask id="mask1_579_31511" style="mask-type:luminance" maskUnits="userSpaceOnUse" x="3" y="0" width="257" height="300">
<path d="M3.09961 226.509C4.22433 227.969 5.63093 229.233 7.28592 230.182L108.148 288.442L124.949 298.098C127.461 299.549 130.324 300.163 133.138 299.954C134.075 299.879 135.013 299.703 135.928 299.443L259.938 72.378C258.989 71.3453 257.878 70.4802 256.634 69.7546L179.645 25.2959L138.948 1.88053C137.793 1.21072 136.54 0.736272 135.264 0.401367L3.09961 226.509Z" fill="white"/>
</mask>
<g mask="url(#mask1_579_31511)">
<path d="M-140.151 106.273L93.7935 422.906L403.19 194.316L169.231 -122.308L-140.151 106.273Z" fill="url(#paint1_linear_579_31511)"/>
</g>
<mask id="mask2_579_31511" style="mask-type:luminance" maskUnits="userSpaceOnUse" x="7" y="0" width="257" height="300">
<path d="M130.552 0.0774328C128.579 0.272794 126.65 0.886766 124.873 1.89706L7.62793 69.5674L134.054 299.842C135.813 299.591 137.543 299.005 139.106 298.101L256.685 230.182C260.313 228.078 262.797 224.517 263.551 220.481L134.668 0.309054C133.72 0.122066 132.771 0.0244141 131.794 0.0244141C131.403 0.0244141 131.012 0.0439195 130.622 0.0802009" fill="white"/>
</mask>
<g mask="url(#mask2_579_31511)">
<path d="M7.62598 0.0244141V299.848H263.502V0.0244141H7.62598Z" fill="url(#paint2_linear_579_31511)"/>
</g>
<defs>
<linearGradient id="paint0_linear_579_31511" x1="216.8" y1="-23.2156" x2="46.9318" y2="323.315" gradientUnits="userSpaceOnUse">
<stop offset="0.3" stop-color="#3E863D"/>
<stop offset="0.5" stop-color="#55934F"/>
<stop offset="0.8" stop-color="#5AAD45"/>
</linearGradient>
<linearGradient id="paint1_linear_579_31511" x1="-21.777" y1="266.404" x2="287.631" y2="37.7882" gradientUnits="userSpaceOnUse">
<stop offset="0.57" stop-color="#3E863D"/>
<stop offset="0.72" stop-color="#619857"/>
<stop offset="1" stop-color="#76AC64"/>
</linearGradient>
<linearGradient id="paint2_linear_579_31511" x1="7.7123" y1="149.944" x2="263.55" y2="149.944" gradientUnits="userSpaceOnUse">
<stop offset="0.16" stop-color="#6BBF47"/>
<stop offset="0.38" stop-color="#79B461"/>
<stop offset="0.47" stop-color="#75AC64"/>
<stop offset="0.7" stop-color="#659E5A"/>
<stop offset="0.9" stop-color="#3E863D"/>
</linearGradient>
</defs>
</svg>
