<svg width="309" height="300" viewBox="0 0 309 300" fill="none" xmlns="http://www.w3.org/2000/svg">
<g clip-path="url(#clip0_579_31466)">
<path d="M54.8944 0H253.612C283.741 0 308.1 24.359 308.1 54.4872V245.513C308.1 275.641 283.741 300 253.612 300H54.8944C24.7662 300 0.407227 275.641 0.407227 245.513V54.4872C0.407227 24.359 24.7662 0 54.8944 0Z" fill="#001E36"/>
<path d="M69.6382 210.385V78.4617C69.6382 77.5643 70.0228 77.0515 70.9202 77.0515C73.0997 77.0515 75.151 77.0515 78.0997 76.9233C81.1766 76.795 84.3818 76.795 87.8433 76.6668C91.3048 76.5386 95.0228 76.5386 98.9972 76.4104C102.972 76.2822 106.818 76.2822 110.664 76.2822C121.177 76.2822 129.895 77.5643 137.074 80.2566C143.484 82.4361 149.382 86.0258 154.254 90.7694C158.356 94.872 161.561 99.872 163.613 105.385C165.536 110.769 166.561 116.282 166.561 122.051C166.561 133.077 163.997 142.18 158.869 149.359C153.741 156.539 146.561 161.923 138.228 165C129.51 168.205 119.895 169.359 109.382 169.359C106.305 169.359 104.254 169.359 102.972 169.231C101.689 169.103 99.8946 169.103 97.4587 169.103V210.257C97.5869 211.154 96.9459 211.923 96.0484 212.051C95.9202 212.051 95.792 212.051 95.5356 212.051H71.1766C70.151 212.051 69.6382 211.539 69.6382 210.385ZM97.5869 101.795V144.872C99.3818 145 101.048 145.128 102.587 145.128H109.382C114.382 145.128 119.382 144.359 124.125 142.821C128.228 141.667 131.818 139.231 134.638 136.026C137.33 132.821 138.613 128.462 138.613 122.821C138.741 118.846 137.715 114.872 135.664 111.41C133.484 108.077 130.407 105.513 126.689 104.103C121.946 102.18 116.818 101.41 111.561 101.539C108.228 101.539 105.279 101.539 102.843 101.667C100.279 101.539 98.4843 101.667 97.5869 101.795Z" fill="#31A8FF"/>
<path d="M246.561 137.051C242.715 135 238.612 133.589 234.253 132.692C229.51 131.666 224.766 131.025 219.894 131.025C217.33 130.897 214.638 131.282 212.202 131.923C210.535 132.307 209.125 133.205 208.228 134.487C207.587 135.513 207.202 136.795 207.202 137.948C207.202 139.102 207.715 140.256 208.484 141.282C209.638 142.692 211.176 143.846 212.843 144.743C215.792 146.282 218.869 147.692 221.946 148.974C228.869 151.282 235.535 154.487 241.689 158.333C245.92 161.025 249.382 164.615 251.817 168.974C253.869 173.077 254.894 177.564 254.766 182.179C254.894 188.205 253.1 194.23 249.766 199.23C246.176 204.359 241.176 208.333 235.407 210.641C229.125 213.333 221.433 214.743 212.202 214.743C206.305 214.743 200.535 214.231 194.766 213.077C190.279 212.307 185.792 210.897 181.689 208.974C180.792 208.461 180.151 207.564 180.279 206.538V184.231C180.279 183.846 180.407 183.333 180.792 183.077C181.176 182.82 181.561 182.948 181.946 183.205C186.946 186.154 192.202 188.205 197.843 189.487C202.715 190.769 207.843 191.41 212.971 191.41C217.843 191.41 221.305 190.769 223.612 189.615C225.664 188.718 227.074 186.538 227.074 184.231C227.074 182.436 226.048 180.769 223.997 179.102C221.946 177.436 217.715 175.513 211.433 173.077C204.894 170.769 198.869 167.692 193.228 163.846C189.253 161.025 185.92 157.307 183.484 152.948C181.433 148.846 180.407 144.359 180.535 139.872C180.535 134.359 182.074 129.102 184.894 124.359C188.1 119.231 192.843 115.128 198.356 112.564C204.382 109.487 211.946 108.077 221.048 108.077C226.305 108.077 231.689 108.461 236.946 109.23C240.792 109.743 244.51 110.769 247.971 112.179C248.484 112.307 248.997 112.82 249.253 113.333C249.382 113.846 249.51 114.359 249.51 114.872V135.769C249.51 136.282 249.253 136.795 248.869 137.051C247.715 137.307 247.074 137.307 246.561 137.051Z" fill="#31A8FF"/>
</g>
<defs>
<clipPath id="clip0_579_31466">
<rect width="307.692" height="300" fill="white" transform="translate(0.407227)"/>
</clipPath>
</defs>
</svg>
