<svg width="309" height="300" viewBox="0 0 309 300" fill="none" xmlns="http://www.w3.org/2000/svg">
<g clip-path="url(#clip0_579_31482)">
<path d="M55.2792 0H253.997C284.125 0 308.484 24.359 308.484 54.4872V245.513C308.484 275.641 284.125 300 253.997 300H55.2792C25.151 300 0.791992 275.641 0.791992 245.513V54.4872C0.791992 24.359 25.151 0 55.2792 0Z" fill="#00005B"/>
<path d="M73.8687 210.256V78.2049C73.8687 77.3074 74.2533 76.7946 75.1507 76.7946C77.3302 76.7946 79.3815 76.7946 82.3302 76.6664C85.4071 76.5382 88.6122 76.5382 92.0738 76.41C95.5353 76.2818 99.2533 76.2818 103.228 76.1536C107.202 76.0254 111.048 76.0254 114.894 76.0254C125.407 76.0254 134.125 77.3074 141.305 79.9998C147.715 82.1792 153.612 85.769 158.484 90.5126C162.587 94.6151 165.792 99.6151 167.843 105.128C169.766 110.513 170.792 116.025 170.792 121.795C170.792 132.82 168.228 141.923 163.099 149.102C157.971 156.282 150.792 161.666 142.458 164.743C133.74 167.948 124.125 169.102 113.612 169.102C110.535 169.102 108.484 169.102 107.202 168.974C105.92 168.846 104.125 168.846 101.689 168.846V210C101.817 210.897 101.176 211.666 100.279 211.795H99.7661H75.4071C74.3815 211.795 73.8687 211.282 73.8687 210.128V210.256ZM101.817 101.666V144.743C103.612 144.872 105.279 145 106.817 145H113.612C118.612 145 123.612 144.231 128.356 142.692C132.458 141.538 136.048 139.102 138.869 135.897C141.561 132.692 142.843 128.333 142.843 122.692C142.971 118.718 141.946 114.743 139.894 111.282C137.715 107.948 134.638 105.384 130.92 103.974C126.176 102.051 121.048 101.282 115.792 101.41C112.458 101.41 109.51 101.41 107.074 101.538C104.51 101.41 102.715 101.538 101.817 101.666Z" fill="#9999FF"/>
<path d="M189.254 109.231H211.69C212.972 109.231 213.997 110.128 214.382 111.282C214.767 112.308 215.023 113.334 215.151 114.487C215.408 115.769 215.664 117.18 215.792 118.462C215.921 119.872 216.049 121.41 216.049 123.077C219.895 118.59 224.51 114.872 229.767 112.051C235.664 108.718 242.459 107.051 249.254 107.051C250.151 106.923 250.921 107.564 251.049 108.462V108.975V133.975C251.049 135 250.408 135.385 248.997 135.385C244.382 135.257 239.639 135.641 235.151 136.667C231.433 137.436 227.844 138.59 224.382 140.128C221.946 141.282 219.639 142.821 217.844 144.872V210.257C217.844 211.539 217.331 212.051 216.177 212.051H190.921C189.895 212.18 188.997 211.539 188.869 210.513V210V138.975C188.869 135.898 188.869 132.693 188.741 129.359C188.613 126.026 188.613 122.693 188.485 119.359C188.485 116.41 188.228 113.59 187.972 110.641C187.844 110 188.228 109.359 188.869 109.231C188.869 109.103 189.126 109.103 189.254 109.231Z" fill="#9999FF"/>
</g>
<defs>
<clipPath id="clip0_579_31482">
<rect width="307.692" height="300" fill="white" transform="translate(0.791992)"/>
</clipPath>
</defs>
</svg>
