<svg width="248" height="300" viewBox="0 0 248 300" fill="none" xmlns="http://www.w3.org/2000/svg">
<g clip-path="url(#clip0_579_31372)">
<path d="M122.496 0.00204787C112.285 0.0494934 102.534 0.920345 93.9534 2.43859C68.6775 6.90402 64.0884 16.2506 64.0884 33.4871V56.2514H123.819V63.8395H64.0884H41.6721C24.3129 63.8395 9.11263 74.2735 4.35818 94.1223C-1.12601 116.874 -1.36927 131.071 4.35818 154.827C8.60401 172.51 18.7436 185.11 36.1029 185.11H56.6395V157.821C56.6395 138.106 73.6973 120.715 93.9534 120.715H153.614C170.221 120.715 183.479 107.041 183.479 90.3631V33.4871C183.479 17.2999 169.823 5.14017 153.614 2.43859C143.353 0.730561 132.707 -0.0453983 122.496 0.00204787ZM90.1942 18.3109C96.3639 18.3109 101.402 23.4316 101.402 29.7279C101.402 36.0019 96.3639 41.0752 90.1942 41.0752C84.0024 41.0752 78.9861 36.0018 78.9861 29.7279C78.9861 23.4316 84.0024 18.3109 90.1942 18.3109Z" fill="url(#paint0_linear_579_31372)"/>
<path d="M190.928 63.8398V90.3634C190.928 110.927 173.495 128.234 153.615 128.234H93.954C77.6119 128.234 64.0889 142.221 64.0889 158.587V215.463C64.0889 231.65 78.1648 241.171 93.954 245.815C112.861 251.374 130.992 252.379 153.615 245.815C168.652 241.461 183.48 232.699 183.48 215.463V192.698H123.819V185.11H183.48H213.345C230.704 185.11 237.173 173.002 243.21 154.827C249.446 136.117 249.18 118.124 243.21 94.1226C238.92 76.8414 230.726 63.8398 213.345 63.8398H190.928ZM157.374 207.874C163.566 207.875 168.582 212.948 168.582 219.222C168.582 225.518 163.566 230.639 157.374 230.639C151.204 230.639 146.166 225.518 146.166 219.222C146.166 212.948 151.204 207.874 157.374 207.874Z" fill="url(#paint1_linear_579_31372)"/>
<path opacity="0.44382" d="M124.496 300C168.703 300 204.539 293.051 204.539 284.479C204.539 275.907 168.703 268.958 124.496 268.958C80.2893 268.958 44.4526 275.907 44.4526 284.479C44.4526 293.051 80.2893 300 124.496 300Z" fill="url(#paint2_radial_579_31372)"/>
</g>
<defs>
<linearGradient id="paint0_linear_579_31372" x1="0.15332" y1="-6.46391e-07" x2="137.885" y2="117.366" gradientUnits="userSpaceOnUse">
<stop stop-color="#5A9FD4"/>
<stop offset="1" stop-color="#306998"/>
</linearGradient>
<linearGradient id="paint1_linear_579_31372" x1="155.938" y1="217.308" x2="106.526" y2="148.066" gradientUnits="userSpaceOnUse">
<stop stop-color="#FFD43B"/>
<stop offset="1" stop-color="#FFE873"/>
</linearGradient>
<radialGradient id="paint2_radial_579_31372" cx="0" cy="0" r="1" gradientUnits="userSpaceOnUse" gradientTransform="translate(124.496 284.479) rotate(-90) scale(15.5211 68.2217)">
<stop stop-color="#B8B8B8" stop-opacity="0.498039"/>
<stop offset="1" stop-color="#7F7F7F" stop-opacity="0"/>
</radialGradient>
<clipPath id="clip0_579_31372">
<rect width="247.634" height="300" fill="white" transform="translate(0.15332)"/>
</clipPath>
</defs>
</svg>
