<svg width="338" height="300" viewBox="0 0 338 300" fill="none" xmlns="http://www.w3.org/2000/svg">
<g clip-path="url(#clip0_579_31334)">
<path d="M168.595 180.052C185.193 180.052 198.648 166.596 198.648 149.998C198.648 133.4 185.193 119.945 168.595 119.945C151.996 119.945 138.541 133.4 138.541 149.998C138.541 166.596 151.996 180.052 168.595 180.052Z" fill="#61DAFB"/>
<path d="M168.592 211.573C257.655 211.573 329.855 184.006 329.855 150C329.855 115.994 257.655 88.4272 168.592 88.4272C79.529 88.4272 7.3291 115.994 7.3291 150C7.3291 184.006 79.529 211.573 168.592 211.573Z" stroke="#61DAFB" stroke-width="14.6603"/>
<path d="M115.275 180.787C159.806 257.917 219.78 306.661 249.23 289.658C278.68 272.655 266.454 196.344 221.922 119.213C177.391 42.0826 117.417 -6.66073 87.9672 10.3422C58.5172 27.3452 70.7432 103.656 115.275 180.787Z" stroke="#61DAFB" stroke-width="14.6603"/>
<path d="M115.273 119.216C70.7411 196.347 58.515 272.657 87.965 289.66C117.415 306.663 177.389 257.92 221.92 180.789C266.452 103.658 278.678 27.3477 249.228 10.3448C219.778 -6.65815 159.804 42.0852 115.273 119.216Z" stroke="#61DAFB" stroke-width="14.6603"/>
</g>
<defs>
<clipPath id="clip0_579_31334">
<rect width="337.186" height="300" fill="white"/>
</clipPath>
</defs>
</svg>
