<svg width="333" height="300" viewBox="0 0 333 300" fill="none" xmlns="http://www.w3.org/2000/svg">
<path d="M72.2952 9.87232L165.677 0L259.058 9.87232L331.353 106.922L165.677 299.851L0 106.922L72.2952 9.87232Z" fill="#FDB300"/>
<path d="M67.1073 106.922L165.677 299.851L0 106.922H67.1073Z" fill="#EA6C00"/>
<path d="M264.247 106.922L165.678 299.851L331.354 106.922H264.247Z" fill="#EA6C00"/>
<path d="M67.1084 106.922H264.247L165.678 299.851L67.1084 106.922Z" fill="#FDAD00"/>
<path d="M165.678 0L72.296 9.87219L67.1084 106.922L165.678 0Z" fill="#FDD231"/>
<path d="M165.678 0L259.059 9.87219L264.247 106.922L165.678 0Z" fill="#FDD231"/>
<path d="M331.353 106.922L259.058 9.87158L264.246 106.922H331.353ZM0 106.922L72.2949 9.87158L67.1073 106.922H0Z" fill="#FDAD00"/>
<path d="M165.678 0L67.1084 106.922H264.247L165.678 0Z" fill="#FEEEB7"/>
</svg>
