<svg width="301" height="300" viewBox="0 0 301 300" fill="none" xmlns="http://www.w3.org/2000/svg">
<g clip-path="url(#clip0_579_31368)">
<path d="M270.856 0H29.4502C13.27 0 0.15332 13.1167 0.15332 29.2969V270.703C0.15332 286.883 13.27 300 29.4502 300H270.856C287.037 300 300.153 286.883 300.153 270.703V29.2969C300.153 13.1167 287.037 0 270.856 0Z" fill="#3178C6"/>
<path d="M270.856 0H29.4502C13.27 0 0.15332 13.1167 0.15332 29.2969V270.703C0.15332 286.883 13.27 300 29.4502 300H270.856C287.037 300 300.153 286.883 300.153 270.703V29.2969C300.153 13.1167 287.037 0 270.856 0Z" fill="#3178C6"/>
<path fill-rule="evenodd" clip-rule="evenodd" d="M185.86 238.725V268.058C190.628 270.502 196.268 272.335 202.779 273.557C209.29 274.779 216.152 275.391 223.366 275.391C230.396 275.391 237.075 274.719 243.402 273.374C249.73 272.03 255.278 269.814 260.046 266.728C264.815 263.643 268.59 259.609 271.371 254.629C274.153 249.648 275.544 243.492 275.544 236.159C275.544 230.842 274.749 226.182 273.16 222.18C271.57 218.177 269.278 214.618 266.282 211.501C263.287 208.385 259.695 205.588 255.507 203.113C251.32 200.638 246.597 198.301 241.339 196.102C237.488 194.512 234.034 192.97 230.977 191.473C227.92 189.975 225.322 188.447 223.182 186.889C221.042 185.331 219.392 183.681 218.23 181.939C217.069 180.197 216.488 178.227 216.488 176.027C216.488 174.011 217.008 172.192 218.047 170.573C219.087 168.953 220.554 167.563 222.449 166.402C224.344 165.241 226.667 164.34 229.418 163.698C232.169 163.056 235.226 162.736 238.588 162.736C241.033 162.736 243.616 162.919 246.337 163.286C249.057 163.652 251.793 164.218 254.545 164.981C257.296 165.745 259.97 166.708 262.568 167.869C265.166 169.03 267.566 170.374 269.767 171.902V144.495C265.304 142.784 260.429 141.516 255.14 140.691C249.852 139.866 243.784 139.453 236.938 139.453C229.968 139.453 223.366 140.202 217.13 141.699C210.895 143.196 205.408 145.533 200.669 148.711C195.931 151.889 192.187 155.937 189.436 160.857C186.685 165.776 185.31 171.657 185.31 178.502C185.31 187.24 187.831 194.696 192.875 200.868C197.918 207.04 205.575 212.265 215.846 216.543C219.881 218.193 223.641 219.812 227.126 221.401C230.61 222.99 233.621 224.64 236.158 226.351C238.695 228.062 240.697 229.925 242.165 231.942C243.632 233.958 244.366 236.25 244.366 238.817C244.366 240.711 243.907 242.468 242.99 244.087C242.073 245.707 240.682 247.112 238.817 248.304C236.953 249.496 234.63 250.427 231.848 251.099C229.066 251.772 225.811 252.108 222.082 252.108C215.724 252.108 209.427 250.993 203.191 248.762C196.956 246.532 191.178 243.186 185.86 238.725ZM136.548 166.454H174.177V142.383H69.2939V166.454H106.739V273.633H136.548V166.454Z" fill="white"/>
</g>
<defs>
<clipPath id="clip0_579_31368">
<rect width="300" height="300" fill="white" transform="translate(0.15332)"/>
</clipPath>
</defs>
</svg>
