<svg width="308" height="300" viewBox="0 0 308 300" fill="none" xmlns="http://www.w3.org/2000/svg">
<g clip-path="url(#clip0_619_34282)">
<path d="M54.4872 0H253.205C283.333 0 307.692 24.359 307.692 54.4872V245.513C307.692 275.641 283.333 300 253.205 300H54.4872C24.359 300 0 275.641 0 245.513V54.4872C0 24.359 24.359 0 54.4872 0Z" fill="#470137"/>
<path d="M161.796 78.8459L123.334 142.307L164.36 209.615C164.616 210.128 164.744 210.641 164.616 211.154C164.488 211.666 163.975 211.282 163.206 211.41H133.847C131.796 211.41 130.385 211.282 129.488 210C126.796 204.615 123.975 199.359 121.283 193.974C118.591 188.718 115.642 183.333 112.565 177.82C109.488 172.307 106.411 166.795 103.334 161.154H103.078C100.385 166.666 97.4367 172.179 94.4879 177.692C91.5392 183.205 88.5905 188.718 85.77 194.102C82.8213 199.487 79.8726 205 76.9238 210.256C76.411 211.538 75.3854 211.666 73.9751 211.666H45.77C45.2572 211.666 44.8726 211.923 44.8726 211.282C44.7444 210.769 44.8726 210.256 45.129 209.872L85.0008 144.487L46.1546 78.7177C45.77 78.2049 45.6418 77.6921 45.8982 77.4357C46.1546 77.0511 46.6674 76.9229 47.1803 76.9229H76.2828C76.9238 76.9229 77.5649 77.0511 78.0777 77.1793C78.5905 77.4357 78.9751 77.8203 79.3597 78.3331C81.7956 83.8459 84.6162 89.3587 87.5649 94.8716C90.6418 100.384 93.5905 105.769 96.7956 111.154C99.8726 116.538 102.693 121.923 105.385 127.436H105.642C108.334 121.795 111.155 116.282 113.975 110.897C116.796 105.513 119.744 100.128 122.693 94.7434C125.642 89.3588 128.462 83.8459 131.283 78.5895C131.411 78.0767 131.667 77.5639 132.052 77.3075C132.565 77.0511 133.078 76.9228 133.719 77.0511H160.77C161.411 76.9228 162.052 77.3075 162.18 77.9485C162.308 78.0767 162.052 78.5895 161.796 78.8459Z" fill="#FF61F6"/>
<path d="M221.027 214.103C211.54 214.231 202.053 212.308 193.463 208.334C185.386 204.616 178.719 198.462 174.104 190.898C169.36 183.077 167.053 173.334 167.053 161.667C166.924 152.18 169.36 142.821 174.104 134.616C178.976 126.282 186.027 119.359 194.489 114.744C203.463 109.744 214.232 107.308 226.924 107.308C227.565 107.308 228.463 107.308 229.617 107.436C230.771 107.564 232.053 107.564 233.591 107.693V67.1797C233.591 66.2823 233.976 65.7694 234.873 65.7694H260.899C261.54 65.6412 262.053 66.1541 262.181 66.6669C262.181 66.7951 262.181 66.9233 262.181 66.9233V188.975C262.181 191.282 262.309 193.846 262.437 196.667C262.694 199.359 262.822 201.923 262.95 204.103C262.95 205 262.565 205.769 261.668 206.154C255.001 208.975 247.95 211.026 240.771 212.308C234.232 213.462 227.694 214.103 221.027 214.103ZM233.591 188.462V132.051C232.437 131.795 231.283 131.539 230.13 131.41C228.719 131.282 227.309 131.154 225.899 131.154C220.899 131.154 215.899 132.18 211.412 134.487C207.053 136.667 203.335 139.872 200.514 143.975C197.694 148.077 196.283 153.59 196.283 160.257C196.155 164.744 196.924 169.231 198.463 173.462C199.745 176.923 201.668 180 204.232 182.564C206.668 184.872 209.617 186.667 212.95 187.693C216.412 188.846 220.001 189.359 223.591 189.359C225.514 189.359 227.309 189.231 228.976 189.103C230.642 189.231 232.053 188.975 233.591 188.462Z" fill="#FF61F6"/>
</g>
<defs>
<clipPath id="clip0_619_34282">
<rect width="307.692" height="300" fill="white"/>
</clipPath>
</defs>
</svg>
