<svg width="455" height="143" viewBox="0 0 455 143" fill="none" xmlns="http://www.w3.org/2000/svg">
<path d="M9.09473 10.7162L36.8144 10.626L61.753 60.3187L86.8709 10.7162L114.591 10.626L74.5808 84.3545L74.4913 131.617L48.9248 131.526L49.1938 85.255L9.09473 10.7162Z" fill="#02182A"/>
<path d="M204.393 98.672C205.193 101.172 202.346 103.25 200.209 101.724L181.422 88.314L163.47 101.107C161.32 102.639 158.465 100.53 159.297 98.0251L166.351 76.7914L148.119 63.6292C145.986 62.0893 147.054 58.7201 149.684 58.689L171.912 58.4265L178.982 36.7468C179.803 34.2298 183.368 34.2395 184.175 36.761L191.11 58.4265L213.659 58.6912C216.275 58.7219 217.352 62.0612 215.247 63.6147L197.389 76.7914L204.393 98.672ZM239.373 71.5696C238.8 22.9598 209.921 9.09424 181.78 9.09424C153.639 9.09424 123.994 21.5165 124.188 71.9302C124.367 118.562 153.639 133.505 181.78 133.505C209.921 133.505 239.911 117.301 239.373 71.5696Z" fill="#02182A"/>
<path d="M361.195 10.3521L332.565 10.2651L289.429 65.024V10.7123H263.953V131.702H289.429V88.825L300.346 80.9006L331.959 131.78L361.195 131.702L318.739 64.1876L361.195 10.3521Z" fill="#02182A"/>
<path d="M445.626 31.6619V10.6118H391.175V10.6165H376.131V131.607H391.113V131.64H445.567V110.589H401.607V79.1264H442.695V58.0761H401.607V31.6619H445.626Z" fill="#02182A"/>
</svg>
